/* XPM */
static char * rockdodger_icon_64x64_xpm[] = {
"64 64 65 1",
" 	c None",
".	c #010200",
"+	c #090819",
"@	c #070D2E",
"#	c #03113C",
"$	c #0A0C5E",
"%	c #0B0F4C",
"&	c #0B0E72",
"*	c #1B1A10",
"=	c #361213",
"-	c #351E00",
";	c #8F0503",
">	c #A40004",
",	c #1B2341",
"'	c #5A1A02",
")	c #252A01",
"!	c #242631",
"~	c #6F1411",
"{	c #1E209F",
"]	c #B10A00",
"^	c #2C2E29",
"/	c #CA0602",
"(	c #1D24DC",
"_	c #2224CE",
":	c #2123F1",
"<	c #302E96",
"[	c #292FC6",
"}	c #383F00",
"|	c #6F2B62",
"1	c #6C2A83",
"2	c #503755",
"3	c #403F90",
"4	c #42445D",
"5	c #464378",
"6	c #93374B",
"7	c #EF2701",
"8	c #78474E",
"9	c #575550",
"0	c #F83939",
"a	c #FE2EAA",
"b	c #F53B5E",
"c	c #EE4336",
"d	c #605ECF",
"e	c #F24146",
"f	c #8467C0",
"g	c #887190",
"h	c #7C79B0",
"i	c #F46265",
"j	c #D26D6D",
"k	c #E6721A",
"l	c #CA8700",
"m	c #C18C8C",
"n	c #F97FCD",
"o	c #FF858A",
"p	c #A69EDC",
"q	c #F9907E",
"r	c #F89798",
"s	c #F7A864",
"t	c #C8B1D4",
"u	c #F6B728",
"v	c #FDC0B9",
"w	c #FBD792",
"x	c #F7E92B",
"y	c #FFE4D3",
"z	c #FEFF82",
"                                                                ",
"                                                                ",
"                                                                ",
"                                                                ",
"                                                                ",
"                                                                ",
"                                                                ",
"                                                                ",
"                                                                ",
"                                                                ",
"                                                                ",
"                                                                ",
"                                                                ",
"                                                                ",
".........................                                       ",
"..,$$$$$&&&&&&&&&&&%,!^^^.                                      ",
".,3(__(::::::::::::[3549^.                                      ",
".$[:(((___________((((({59..                                    ",
".%[(__((((_________((((_{<4!.                                   ",
".#<[[_[_______________(((_5!.                                   ",
".^g3{{3<[((((((_((:(:::::(349..                                 ",
" .*+++++++53<_((:[&#%${{<3499^*..                               ",
"  ........!45{[_[<599433hmm944!..+                              ",
"          ..9!#%,mvyyyvvvyr8##,24!..                            ",
"          ..9jrrrvvyvg,,4rj8@@###@@!+........                   ",
"          .*mrvvvvvvvm@,2rj8@@@####4^-)=====8.                  ",
"          .8yvvyvvvqoj888orq62,#@@#2vwzyvrrrv............       ",
"..........{dpttttttvvrrrroiiiij6222jwzzsqooorrrrnnnrrrrrm..     ",
".+%@@@@%%#_[dffddddfffffgnieeeei666iuxxsqiiiiooonnnoooooj=~~    ",
".$[{{{{(::((((((::::::(_[16ecc00ceccuxxkceeeccebaaab00000ei;.   ",
".4ppppphhhhhhhhhfffdd[(_[d48eeeeeeecuxxkceeeecebaaabeceeeee00.  ",
".!4444444!8886666666|111||6~eeeece0cuxxkceeeecebaaabeccc00c07;'*",
"..........~;;;>>>>>>>;;]]///c00c0eccuxxkceeeecebaaabeccccc///7>*",
"         .;]>]>>>>>>>>>>>>>>]0eceeecuxxk//]]]]]]///]]]]>>>]//.. ",
"         .;>>>>>>>>>>>>>>>>>>cc]cc//luxk/////////////////]/;=.  ",
"         .~;;>>>>>>]>>>>>>>>>>>>////kluk//>>]>>>>>>>>>]]]>]~.   ",
"          ...~;]]>]/]>>>>>>>>>>>]]]kkuuk77..................    ",
"          ..)-';;;>]]>>>>>>>>>;;]]/7kl*-==.                     ",
"          .*})-'~~~>>>>>>>>>>;;;]>;]kl....                      ",
"          ..)))))}}~]//////////77=....                          ",
"  ........)*%%$%%#++=====''''...==                              ",
" **.++@++.)!&&&&&$%%@@@#@+---....                               ",
".^94<[[<%@#%$$&&&&&&&&&&&&)).                                   ",
".!4&[___[{&$$$$$$$$$$&&&$,..                                    ",
".!5{_(((__{&$$$$$$$$$$$%#..                                     ",
".,5{_(___([{$&&&&&$&$%@**.                                      ",
".^4&[__((:(_{&%@+**)))}*.                                       ",
".*!#%$$$$$$$%@+...****).                                        ",
".......................                                         ",
"                                                                ",
"                                                                ",
"                                                                ",
"                                                                ",
"                                                                ",
"                                                                ",
"                                                                ",
"                                                                ",
"                                                                ",
"                                                                ",
"                                                                ",
"                                                                ",
"                                                                ",
"                                                                ",
"                                                                "};
